<svg id="Capa_1" data-name="Capa 1" xmlns="http://www.w3.org/2000/svg" viewBox="0 0 498.38 250.21"><defs><style>.cls-1{fill:#d96789;}.cls-2{fill:#5d5d62;}.cls-3{fill:#5b5d62;}.cls-4{fill:#e2e2e1;}.cls-5{fill:#c4c5c8;}.cls-6{fill:#f8fcfb;}.cls-7{fill:#da678a;}.cls-8{fill:#8c3c52;}.cls-14,.cls-9{fill:#9c9b9b;}.cls-10{fill:#1e1c1c;}.cls-11{fill:#fff;}.cls-12,.cls-13{fill:#1d1d1b;}.cls-12{stroke:#1d1d1b;}.cls-12,.cls-14{stroke-miterlimit:10;}.cls-13{font-size:126.71px;font-family:Nunito-ExtraBoldItalic, Nunito;font-weight:800;font-style:italic;}.cls-14{stroke:#e2e2e1;stroke-width:7px;font-family:CooperBlack, Cooper Black;font-weight:400;font-style:normal;}</style></defs><path class="cls-1" d="M60.81,17.52S73,17.73,78.11,22s5.49,5.49,5.09,7.73S74.85,44.58,68.34,44.79s-21.57,10-22.79,7.93,0-32.15,0-32.15,4.89-4.88,7.13-4.68l2.23.21Z"/><path class="cls-1" d="M165.34,31.87s9-12,23.4-11.8,11.6,36.83,11.6,36.83S186.73,55.07,183,51s-7.85-3.67-13.14-9.57-4.07-1.62-4.48-5.08S165.34,31.87,165.34,31.87Z"/><path class="cls-2" d="M74.29,61.29q9-18.15,17.89-36.31A72.78,72.78,0,0,0,78,12.35c-6.61-4.48-13.35-10-23.13-9.72-5,.17-17.26,1.51-20.78,5C31.94,9.79,30,11.61,27.8,14.13c0,0-2.77,3.23-5.3,6.94C13.86,33.78,7.73,54.45,6.74,57.82a71.87,71.87,0,0,0-3,14.58,53.49,53.49,0,0,0,.34,13.2,38,38,0,0,0,3,10.55c1.85,4,3.5,7.49,7.2,9.89,7.49,4.86,16.78,1,17.86.54a18.21,18.21,0,0,0,5.36-3.32,18.92,18.92,0,0,0,3.73-4.68c6-10.4,7.24-24.88,7.24-24.88a83.07,83.07,0,0,0-.76-20l1.1-17.36a47,47,0,0,1,3.69-17.6S57,16,64.24,18.22,74,24.09,74.46,24.59l.5.5s3.36,2.35,3.19,7.88S70.1,42,69.43,42.35c-6.21,3.11-11.12,5.5-14.08,6.37a58.7,58.7,0,0,1-7.42,1.68l-.21,3.28,11.82-1.94a9.63,9.63,0,0,1,3.36.17C68.43,52.85,72.22,57.81,74.29,61.29Z"/><path class="cls-2" d="M156.83,26.83C158,23,168.92,19.61,170,18.2c.29-.38.56-.79.56-.79.35-.51.56-.88.77-1.2,4.51-6.9,21.77-10.36,34.92-5.31,11.88,4.56,17,14.76,24.69,30.13,0,0,11.52,23,9.56,47-.41,5-1.45,10.76-5.71,15.53-1.12,1.26-5,5.58-10.89,6.11-2.58.23-4.91-.66-9.56-2.26a26.65,26.65,0,0,1-3.92-1.58s-.63-.34-1.22-.72c-2.36-1.52-5.73-5.29-7.82-10.43-.66-1.62-1.18-3.35-1.43-4.17-.42-1.41-.75-2.51-1-3.87-.47-2.43-.26-3.19-.65-9.5-.09-1.39-.1-1.29-.12-1.83,0-2.2.23-4.24.52-13.43,0-.69.14-4.54.21-9.16.12-7.93.07-15.75-2.47-23.64a6.88,6.88,0,0,0-1.86-3.31c-3.69-3.37-10.9-.69-13.8.39-4.54,1.69-9.14,3.4-10.49,7.84-1.3,4.25,1.25,8.18,1.46,8.49,1.34,2,3.15,2.93,6.77,4.78a40.17,40.17,0,0,0,7,2.8l.93.26c6.59,1.72,11.51-.44,13.46,1.86.94,1.11,1.08,3.16.27,4.07-1.4,1.56-5-1-11.83-.75a15.74,15.74,0,0,0-4.15.52c-3.87,1.15-9.19,5.09-10.09,8.58,0,.15-.09.4-.27.45-1,.3-3.44-6.27-9.56-20-2-4.48-3.35-9.25-5.7-13.55C157.16,28.93,156.46,28,156.83,26.83Z"/><path class="cls-3" d="M51.11,156.84a142.51,142.51,0,0,1,4.16-24.65,29.14,29.14,0,0,0,1.19-11.89c-.28-2.24-.62-2.53-2.26-8.15-1.72-6-2.92-10.07-3.53-14.74a52.69,52.69,0,0,1-.24-11.31,61.23,61.23,0,0,1,6.35-23.83c.64-1.26,3.06-5.92,10-14.35A167.76,167.76,0,0,1,88.44,26.17a117.25,117.25,0,0,1,74.66,0c5,6.28,9.18,11.63,12.2,15.61,7.52,9.86,9.18,12.54,10.6,15.25a62.75,62.75,0,0,1,5.95,17A93.67,93.67,0,0,1,192.1,100c-1.69,12.66-5.07,17-3.31,27.17.88,5.07,2.28,7.27,3.36,15a84.18,84.18,0,0,1,.78,14.71Z"/><path class="cls-4" d="M167.16,66.54c0,2.86,5.53,3.13,9.39,4.42A44.42,44.42,0,0,0,189,73.24,31.8,31.8,0,0,0,177.3,63.1a30.47,30.47,0,0,0-9.84-3,53.24,53.24,0,0,0,8.86-.92,53.67,53.67,0,0,0,6.34-1.6,27.58,27.58,0,0,0-9.8-3.18,27.09,27.09,0,0,0-9.79.58A31.9,31.9,0,0,0,169.75,53c1.09-.47,2.09-1,3-1.47a11.83,11.83,0,0,0-4.48-2.39,11.34,11.34,0,0,0-3.27-.4,37.45,37.45,0,0,0-8.44,1.92c-13,4.58-20.07,15.12-22.9,20l33.5-4.07"/><path class="cls-4" d="M127.19,145.63a28,28,0,0,1,23.28,6.94c8.43,7.54,10.79,17.84,11.37,20.8A191.41,191.41,0,0,1,171.79,201a203.49,203.49,0,0,1,5.59,27.51,54,54,0,0,0,8.48-37.64,47.72,47.72,0,0,0-12.58-25.89,60.18,60.18,0,0,1,12.6,17.19A70.4,70.4,0,0,1,192,201c1.71-5.83,3.56-15.39.72-25.41a49.5,49.5,0,0,0-2.91-7.42,70.06,70.06,0,0,0-13.15-19.6c-.42-.44,6.51,3.7,11.83,11a53.59,53.59,0,0,1,6.09,11c1.56-6.28.68-10.43.15-12.27a35.91,35.91,0,0,0-1.35-3.64,43.13,43.13,0,0,0-3.61-6.82,90.78,90.78,0,0,0-13.6-19.11,76.46,76.46,0,0,0-49-24.11v41l34.65,27.74"/><path class="cls-4" d="M127.19,145.63a35,35,0,0,0-26.44,6.94,37.15,37.15,0,0,0-12.92,20.8A177.94,177.94,0,0,0,76.53,201a181,181,0,0,0-6.35,27.51c-1.68-2.14-13.22-17.28-9.63-37.64a46.11,46.11,0,0,1,14.29-25.89,61.46,61.46,0,0,0-14.32,17.19,65.09,65.09,0,0,0-7,18.83c-1.93-5.83-4-15.39-.81-25.41a46.16,46.16,0,0,1,3.3-7.42A70.62,70.62,0,0,1,71,148.52c.48-.44-7.39,3.7-13.44,11a52.27,52.27,0,0,0-6.91,11c-1.77-6.28-.78-10.43-.17-12.27A32.48,32.48,0,0,1,52,154.65a40.81,40.81,0,0,1,4.09-6.82,91.86,91.86,0,0,1,15.45-19.11c20.79-19.53,45-23.22,55.67-24.11v41L87.83,173.37"/><path class="cls-4" d="M127.19,145.63a35,35,0,0,0-26.44,6.94,37.15,37.15,0,0,0-12.92,20.8A177.94,177.94,0,0,0,76.53,201a181,181,0,0,0-6.35,27.51c-1.68-2.14-13.22-17.28-9.63-37.64a46.11,46.11,0,0,1,14.29-25.89,61.46,61.46,0,0,0-14.32,17.19,65.09,65.09,0,0,0-7,18.83c-1.93-5.83-4-15.39-.81-25.41a46.16,46.16,0,0,1,3.3-7.42A70.62,70.62,0,0,1,71,148.52c.48-.44-7.39,3.7-13.44,11a52.27,52.27,0,0,0-6.91,11c-1.77-6.28,4.31-21.18,5.46-22.73a91.86,91.86,0,0,1,15.45-19.11c20.79-19.53,45-23.22,55.67-24.11v41L87.83,173.37"/><path class="cls-5" d="M124,146.25h33.39a30.1,30.1,0,0,1,.17,16.13,25.13,25.13,0,0,1-2.71,6.19c-.77,3.18-1.53,6.36-2.3,9.54-3.53-7.21-4.48-8.85-4.59-8.77s2,3.92,2.3,9.29a23.45,23.45,0,0,1-.42,5.93,30.11,30.11,0,0,1-4,10.58,23.38,23.38,0,0,1-6.88,7.22c.49-2.11.89-4.36.42-4.64s-1.65,1.26-5.85,8.77c-5.9,10.56-7.61,14.86-8.76,14.44-.6-.22-1.19-1.77-.8-8.38Z"/><path class="cls-5" d="M125.66,146.25h-35a28.7,28.7,0,0,0-.18,16.13,24.16,24.16,0,0,0,2.85,6.19q1.2,4.77,2.41,9.54c3.7-7.21,4.7-8.85,4.82-8.77s-2.08,3.92-2.41,9.29a22.49,22.49,0,0,0,.43,5.93,29.21,29.21,0,0,0,4.17,10.58,24,24,0,0,0,7.22,7.22c-.51-2.11-.93-4.36-.44-4.64s1.73,1.26,6.14,8.77c6.19,10.56,8,14.86,9.19,14.44.63-.22,1.25-1.77.84-8.38Z"/><ellipse cx="125.59" cy="158.78" rx="15.71" ry="16.91"/><path class="cls-6" d="M123.94,166.61,111,151.49a15,15,0,0,0,.52,3.69c1.63,6.18,6.65,11,8.29,12.54"/><path class="cls-6" d="M127.42,167.12l12.72-15.31a15.25,15.25,0,0,1-.38,3.77c-1.43,6.32-6.4,11.22-8,12.73"/><ellipse class="cls-7" cx="125.81" cy="158.53" rx="11.63" ry="16.67"/><ellipse class="cls-8" cx="126.22" cy="153.83" rx="0.92" ry="13.98"/><path class="cls-4" d="M77,72.1a113.33,113.33,0,0,1-10.39,4.66,110,110,0,0,1-12.37,4A32.18,32.18,0,0,1,64.78,69.07a31.65,31.65,0,0,1,9.61-4.28,57.38,57.38,0,0,1-9.15.31,58.65,58.65,0,0,1-6.67-.71,28.54,28.54,0,0,1,19.58-5.28A34,34,0,0,1,71.07,58c-1.18-.32-2.26-.68-3.25-1A12,12,0,0,1,72,54a11.8,11.8,0,0,1,3.27-.85,24.32,24.32,0,0,1,8.86.74c4.6,1.31,14.5,7,26.06,16.63C91.86,67.45,82.34,69.47,77,72.1Z"/><path class="cls-9" d="M125.59,143.29a56.24,56.24,0,0,0-24.51,12.6c-3.85,3.43-12.35,18.46-15.3,24.6-3.21,6.69-5,9.77-7.44,14.67a196.67,196.67,0,0,0-9.09,21.5c-1.64-8.2-2.54-19.36,1.24-31.21,5.88-18.48,20-28.79,18.81-30-1-1-12,6.1-20.13,17.61a63.68,63.68,0,0,0-9.43,20c-1.07-9.43-.62-21.07,5.62-31.45,7.71-12.83,21.21-18.65,20.84-19.2S76.75,147,66.63,154.67c-4.43,3.37-7.94,6.42-10.41,8.66A53,53,0,0,1,72.41,134.5c1.89-1.69,3.91-3.37,6.06-5,16-12.17,33.28-17.4,47.12-19.67v33.47Q94.9,165.45,92.75,163q-1.43-1.66,9.85-14.3"/><path class="cls-9" d="M124,112.09a30.57,30.57,0,0,0,12.73-2.48,28.23,28.23,0,0,0,5-2.82l-13.44,1a16.83,16.83,0,0,0,8.32-3.14,14.36,14.36,0,0,0,2.95-3l-8.38,1.46a10.33,10.33,0,0,0,5.74-2.87,8.22,8.22,0,0,0,1.41-2h-7.15a18.3,18.3,0,0,0,5.9-2.37,17.17,17.17,0,0,0,2.79-2.22c-1.67.14-3.37.32-5.12.52-2.16.26-4.26.54-6.27.85a24.43,24.43,0,0,0,7.35-4.8,22.56,22.56,0,0,0,2.88-3.36l-3,.25h0l-4.5-.25a17.8,17.8,0,0,1,2.64-1.72,18.91,18.91,0,0,1,3.73-1.51,14.74,14.74,0,0,0-5.6-.61,14.17,14.17,0,0,0-3.09.61,5.73,5.73,0,0,0,.53-1.68,6.45,6.45,0,0,0-.7-4,15.33,15.33,0,0,0-1.24-3.53,17.14,17.14,0,0,0-4.19-5.37Z"/><path class="cls-9" d="M124,112.09a22.47,22.47,0,0,1-10.8-2.48,23,23,0,0,1-4.22-2.82l11.41,1a13,13,0,0,1-7.06-3.14,13.44,13.44,0,0,1-2.5-3l7.11,1.46a8.15,8.15,0,0,1-6.07-4.87h6.07a14.26,14.26,0,0,1-5-2.37,15.73,15.73,0,0,1-2.37-2.22c1.42.14,2.87.32,4.35.52,1.83.26,3.61.54,5.32.85a20.71,20.71,0,0,1-6.24-4.8,21.59,21.59,0,0,1-2.44-3.36l2.57.25h0l3.82-.25a15.33,15.33,0,0,0-2.24-1.72,15,15,0,0,0-3.17-1.51,10.72,10.72,0,0,1,4.75-.61,10.33,10.33,0,0,1,2.62.61A7.14,7.14,0,0,1,120,78a17.63,17.63,0,0,1,1-3.53,17,17,0,0,1,3.56-5.37Z"/><path class="cls-9" d="M125.59,143.29a49,49,0,0,1,22.07,12.6c3.46,3.43,11.12,18.46,13.77,24.6,2.89,6.69,4.51,9.77,6.7,14.67a208.71,208.71,0,0,1,8.2,21.5c1.47-8.2,2.28-19.36-1.12-31.21-5.3-18.48-18-28.79-16.94-30,.91-1,10.78,6.1,18.13,17.61a67.4,67.4,0,0,1,8.49,20c1-9.43.56-21.07-5.06-31.45-7-12.83-19.1-18.65-18.77-19.2s8.51,4.52,17.63,12.22c4,3.37,7.15,6.42,9.37,8.66a57.41,57.41,0,0,0-5.18-15.64,52.76,52.76,0,0,0-9.4-13.19c-1.71-1.69-3.52-3.37-5.46-5a90.21,90.21,0,0,0-42.43-19.67v33.47q27.71,25.23,30,22.65,1.6-1.81-9.3-17.29"/><path class="cls-10" d="M139.34,122.23a30.92,30.92,0,0,0-29.46,0,26.93,26.93,0,0,0,4.65,15.84,34.83,34.83,0,0,0,7.76,1.52c4.58.37,8.21.66,11.26-1.52,3.7-2.63,4.39-7.34,4.55-9"/><ellipse class="cls-11" cx="86.06" cy="84.36" rx="12.2" ry="20.26"/><ellipse class="cls-11" cx="161.34" cy="84.36" rx="12.2" ry="20.26"/><ellipse class="cls-12" cx="88.83" cy="85.83" rx="6.63" ry="14.4"/><ellipse class="cls-12" cx="163.45" cy="85.83" rx="6.63" ry="14.4"/><ellipse class="cls-11" cx="86.06" cy="76.63" rx="3.82" ry="5.2"/><ellipse class="cls-11" cx="161.34" cy="75.54" rx="3.82" ry="5.2"/><circle class="cls-11" cx="85.37" cy="87.89" r="2.06"/><circle class="cls-11" cx="160.4" cy="88.93" r="2.06"/><path class="cls-2" d="M259.48,102.21a12.22,12.22,0,0,0,1.53,3.3c1.79,2.68,3.27,2.44,5.69,4.8a24.35,24.35,0,0,1,5.33,8.88,13.48,13.48,0,0,0,1.44,3.08,10.36,10.36,0,0,0,1.41,1.76,5,5,0,0,0,1.82,1.33,4.09,4.09,0,0,0,1.72.23,15.32,15.32,0,0,0,5.38-1.17,12.59,12.59,0,0,0,2.49-1.28,7.93,7.93,0,0,0,2.27-2.14,9,9,0,0,0,.62-1.09,14.91,14.91,0,0,0,1.09-3.22,29.32,29.32,0,0,0,.6-3.45,34.65,34.65,0,0,0,.23-3.58,31.51,31.51,0,0,0,3.1-4.66,10.09,10.09,0,0,0,.94-2,11,11,0,0,0,0-5.21c-.24-3.16-4.69-7.83-7.49-7.73-1.83.06-2.35.64-9,1.78l-1.46.24a28.13,28.13,0,0,0-2.87-.51c-3.75-.47-7.11-1.48-9.39.67A23.64,23.64,0,0,0,260.61,97,12,12,0,0,0,259.48,102.21Z"/><path class="cls-2" d="M312.77,107.59c.44.25,3.31,1.94,3.57,4.87.19,2.08-1,3.63-2.3,5.24-1.73,2.2-3.69,3.38-6.35,4.94a41.35,41.35,0,0,1-4.52,2.3,7.3,7.3,0,0,1-4.56,0,7.59,7.59,0,0,1-4.4-4.25,9.25,9.25,0,0,1,.07-6.74,12.38,12.38,0,0,1,2.71-4.57,12,12,0,0,1,4.34-3.37,11.22,11.22,0,0,1,5.85-.87A10.93,10.93,0,0,1,312.77,107.59Z"/><path class="cls-2" d="M306.36,87.35s-4.85,3.43-5.59,4.77-1.39,3.43-.94,4.83a6.38,6.38,0,0,0,1.68,3.24c1.34,1.26,2.95,1.44,5.07,1.67a17,17,0,0,0,3.47,0,16.73,16.73,0,0,0,4.09-1,16.08,16.08,0,0,0,3.11-1.56,16.67,16.67,0,0,0,4-3.58c2.43-3,3.17-6.62,1.87-9.06a6.9,6.9,0,0,0-2.58-2.62,6.17,6.17,0,0,0-3.15-.68A12.61,12.61,0,0,0,311,84.51s-.4.19-3.78,2.19h0"/><path class="cls-2" d="M311.27,70.4a8.31,8.31,0,0,1,.71,2.7c.36,4.27-2.86,7.39-3.48,8a26.63,26.63,0,0,1-6.9,5.82c-2.68,1.57-4.53,2.65-6.7,2.07a6.8,6.8,0,0,1-4.43-4.8c-.54-2,.07-3.9.66-5.69a17.11,17.11,0,0,1,1.34-3,18.62,18.62,0,0,1,1.84-2.66,14.46,14.46,0,0,1,5.05-4.28,10.83,10.83,0,0,1,8.46-.55A9.55,9.55,0,0,1,311.27,70.4Z"/><path class="cls-2" d="M287.43,72.67a10.59,10.59,0,0,1,.5,6.45,12.12,12.12,0,0,1-3.46,5.63,12.71,12.71,0,0,1-3,1.93c-.25.12-.61.25-1.32.52-1.89.72-2.84,1.08-3.19,1.17a8.57,8.57,0,0,1-5.12-.44,10.17,10.17,0,0,1-3.74-2.38A9.69,9.69,0,0,1,267,80.91c0-4.6,3.62-7.75,6.5-10.27a12.26,12.26,0,0,1,5.17-3,7.11,7.11,0,0,1,3.69-.21C285.6,68.27,287.05,71.76,287.43,72.67Z"/><path class="cls-2" d="M347.2,58.77a11.75,11.75,0,0,0,1.53,3.3c1.79,2.67,3.27,2.44,5.69,4.79a24.17,24.17,0,0,1,5.32,8.89,13.74,13.74,0,0,0,1.45,3.07,9.92,9.92,0,0,0,1.4,1.76,5,5,0,0,0,1.83,1.34,4.23,4.23,0,0,0,1.72.23A15.42,15.42,0,0,0,371.51,81,12.87,12.87,0,0,0,374,79.7a7.31,7.31,0,0,0,2.89-3.24,14.53,14.53,0,0,0,1.1-3.21,29.23,29.23,0,0,0,.6-3.46,32.21,32.21,0,0,0,.22-3.58,30.93,30.93,0,0,0,3.11-4.65,10.67,10.67,0,0,0,.94-2,10.81,10.81,0,0,0,0-5.22c-.24-3.15-4.68-7.83-7.48-7.73-1.83.07-2.35.65-9,1.79l-1.46.24a28.66,28.66,0,0,0-2.87-.51c-3.76-.48-7.12-1.48-9.39.67a23.32,23.32,0,0,0-4.27,4.84A11.84,11.84,0,0,0,347.2,58.77Z"/><path class="cls-2" d="M400.49,64.15c.44.25,3.3,1.93,3.57,4.86.19,2.08-1,3.64-2.3,5.25-1.73,2.2-3.69,3.38-6.35,4.94a45.32,45.32,0,0,1-4.52,2.3,7.3,7.3,0,0,1-4.56,0,7.59,7.59,0,0,1-4.4-4.25,9.26,9.26,0,0,1,.06-6.74A12.51,12.51,0,0,1,384.71,66,11.83,11.83,0,0,1,389,62.58a11.15,11.15,0,0,1,5.86-.87A11,11,0,0,1,400.49,64.15Z"/><path class="cls-2" d="M394.07,43.9s-4.84,3.43-5.58,4.78-1.39,3.43-.95,4.83a6.54,6.54,0,0,0,1.69,3.24c1.33,1.26,2.95,1.43,5.07,1.66a15.49,15.49,0,0,0,3.46,0,17,17,0,0,0,4.1-.95A17.35,17.35,0,0,0,405,55.89a16.81,16.81,0,0,0,4-3.58c2.43-3,3.17-6.62,1.87-9.06a6.9,6.9,0,0,0-2.58-2.62A6,6,0,0,0,405.1,40a12.6,12.6,0,0,0-6.36,1.11s-.41.2-3.78,2.19h0"/><path class="cls-2" d="M399,27a8.25,8.25,0,0,1,.71,2.69c.36,4.28-2.86,7.4-3.48,8a26.5,26.5,0,0,1-6.9,5.83c-2.69,1.57-4.53,2.64-6.71,2.06a6.78,6.78,0,0,1-4.43-4.8c-.54-2,.08-3.89.67-5.68a16.37,16.37,0,0,1,1.34-3A17.87,17.87,0,0,1,382,29.4a14.7,14.7,0,0,1,5.06-4.27,10.79,10.79,0,0,1,8.45-.56A9.6,9.6,0,0,1,399,27Z"/><path class="cls-2" d="M375.15,29.23a10.59,10.59,0,0,1,.5,6.45,12.12,12.12,0,0,1-3.46,5.63,13.1,13.1,0,0,1-2.95,1.93c-.25.11-.61.25-1.32.52-1.9.72-2.84,1.08-3.19,1.17a8.56,8.56,0,0,1-5.12-.44,10.21,10.21,0,0,1-3.74-2.38,9.72,9.72,0,0,1-1.19-4.64c0-4.6,3.62-7.75,6.5-10.27a12.18,12.18,0,0,1,5.16-3A7.17,7.17,0,0,1,370,24C373.31,24.83,374.77,28.32,375.15,29.23Z"/><path class="cls-2" d="M417.46,106a11.71,11.71,0,0,0,1.52,3.3c1.79,2.68,3.28,2.44,5.7,4.8A24.15,24.15,0,0,1,430,123a13.51,13.51,0,0,0,1.45,3.08,10.18,10.18,0,0,0,1.4,1.76,5.1,5.1,0,0,0,1.82,1.34,4.43,4.43,0,0,0,1.72.23,15.46,15.46,0,0,0,5.38-1.18,12.07,12.07,0,0,0,2.49-1.28,7.93,7.93,0,0,0,2.27-2.14,7.27,7.27,0,0,0,.62-1.09,14.91,14.91,0,0,0,1.09-3.22,28.42,28.42,0,0,0,.61-3.45,35,35,0,0,0,.22-3.58,30.43,30.43,0,0,0,3.11-4.66,11,11,0,0,0,.94-2,10.78,10.78,0,0,0,0-5.21c-.24-3.16-4.68-7.83-7.49-7.73-1.83.06-2.34.64-9,1.79l-1.47.23c-.68-.15-1.67-.36-2.87-.51-3.75-.47-7.11-1.47-9.39.67a22.9,22.9,0,0,0-4.26,4.85A11.83,11.83,0,0,0,417.46,106Z"/><path class="cls-2" d="M470.75,111.38c.44.25,3.3,1.94,3.57,4.87.19,2.08-1,3.64-2.31,5.25-1.73,2.2-3.69,3.37-6.35,4.93a39.61,39.61,0,0,1-4.52,2.3,7.3,7.3,0,0,1-4.56,0,7.63,7.63,0,0,1-4.4-4.25,9.22,9.22,0,0,1,.07-6.73,12.72,12.72,0,0,1,2.71-4.58,12.08,12.08,0,0,1,4.34-3.37,11.23,11.23,0,0,1,5.85-.87A11.1,11.1,0,0,1,470.75,111.38Z"/><path class="cls-2" d="M464.33,91.14s-4.84,3.43-5.58,4.77-1.4,3.44-.95,4.83a6.44,6.44,0,0,0,1.69,3.25c1.33,1.25,2.94,1.43,5.06,1.66a17,17,0,0,0,3.47,0,16.6,16.6,0,0,0,4.09-1,15.8,15.8,0,0,0,3.11-1.56,16.87,16.87,0,0,0,4-3.57c2.43-3,3.17-6.63,1.87-9.07a6.9,6.9,0,0,0-2.58-2.62,6.13,6.13,0,0,0-3.15-.67A12.52,12.52,0,0,0,469,88.3s-.4.2-3.78,2.19h0"/><path class="cls-2" d="M469.24,74.19a8.38,8.38,0,0,1,.71,2.7c.36,4.27-2.86,7.39-3.47,8a26.8,26.8,0,0,1-6.91,5.82c-2.68,1.57-4.53,2.65-6.7,2.07a6.82,6.82,0,0,1-4.43-4.8c-.54-2,.07-3.89.66-5.69a17.11,17.11,0,0,1,1.34-3,19.87,19.87,0,0,1,1.84-2.66,14.45,14.45,0,0,1,5.05-4.27,10.78,10.78,0,0,1,8.46-.56A9.55,9.55,0,0,1,469.24,74.19Z"/><path class="cls-2" d="M445.4,76.46a10.51,10.51,0,0,1,.5,6.45,12.17,12.17,0,0,1-3.46,5.64,12.64,12.64,0,0,1-2.95,1.93c-.25.11-.6.25-1.31.51-1.9.72-2.85,1.08-3.19,1.18a8.67,8.67,0,0,1-5.13-.45,10.25,10.25,0,0,1-3.73-2.37,9.76,9.76,0,0,1-1.2-4.64c0-4.61,3.63-7.76,6.5-10.28a12.32,12.32,0,0,1,5.17-3,7.25,7.25,0,0,1,3.7-.21C443.57,72.06,445,75.55,445.4,76.46Z"/><text class="cls-13" transform="translate(93.45 222.96)"><tspan xml:space="preserve">   </tspan><tspan class="cls-14" x="106.05" y="0">indy</tspan></text></svg>