<svg id="Capa_1" data-name="Capa 1" xmlns="http://www.w3.org/2000/svg" viewBox="0 0 606.71 696.51"><defs><style>.cls-1{fill:#d96789;}.cls-2{fill:#5d5d62;}.cls-3{fill:#5b5d62;}.cls-4{fill:#e2e2e1;}.cls-5{fill:#c4c5c8;}.cls-6{fill:#f8fcfb;}.cls-7{fill:#da678a;}.cls-8{fill:#8c3c52;}.cls-9{fill:#9c9b9b;}.cls-10{fill:#1e1c1c;}.cls-11{fill:#fff;}.cls-12{fill:#1d1d1b;stroke:#1d1d1b;stroke-miterlimit:10;}</style></defs><path class="cls-1" d="M149.59,99.55s30.63.51,43.4,11.23,13.79,13.79,12.77,19.41S184.82,167.46,168.48,168s-54.13,25-57.19,19.92,0-80.68,0-80.68S123.54,95,129.16,95.46l5.62.51Z"/><path class="cls-1" d="M411.9,135.55s22.47-30.12,58.72-29.61,29.11,92.42,29.11,92.42-34.15-4.59-43.63-14.81-19.69-9.19-33-24-10.21-4.08-11.23-12.76S411.9,135.55,411.9,135.55Z"/><path class="cls-2" d="M183.41,209.39l44.89-91.12a182.35,182.35,0,0,0-35.64-31.69c-16.6-11.25-33.49-25.21-58-24.39C122,62.61,91.3,66,82.47,74.8,77.13,80.14,72.24,84.71,66.74,91c0,0-6.95,8.09-13.29,17.41-21.7,31.9-37.08,83.76-39.56,92.24-4.44,15.22-6.54,25.19-7.56,36.57a134.9,134.9,0,0,0,.85,33.12,95.76,95.76,0,0,0,7.57,26.49c4.67,10.1,8.79,18.79,18.09,24.82,18.8,12.18,42.11,2.48,44.81,1.36a46.11,46.11,0,0,0,13.45-8.34A47.79,47.79,0,0,0,100.46,303c15.14-26.09,18.18-62.44,18.18-62.44a209.17,209.17,0,0,0-1.9-50.23l2.74-43.57a118.19,118.19,0,0,1,9.25-44.16s11.36-6.73,29.45-1.26,24.39,14.72,25.65,16l1.26,1.26s8.41,5.89,8,19.77S172.9,161,171.21,161.87c-15.59,7.79-27.9,13.8-35.33,16a148.81,148.81,0,0,1-18.62,4.2l-.52,8.24,29.66-4.87a24,24,0,0,1,8.41.42C168.68,188.19,178.22,200.64,183.41,209.39Z"/><path class="cls-2" d="M390.53,122.9c3-9.66,30.34-18.12,33-21.66.71-1,1.4-2,1.4-2,.87-1.28,1.4-2.22,1.93-3,11.32-17.31,54.64-26,87.62-13.33,29.81,11.45,42.64,37.06,62,75.63,0,0,28.91,57.69,24,117.93-1,12.43-3.64,27-14.32,39-2.81,3.15-12.48,14-27.32,15.33-6.49.58-12.33-1.66-24-5.67a66.22,66.22,0,0,1-9.84-4s-1.59-.86-3.06-1.81c-5.92-3.82-14.4-13.27-19.64-26.17-1.66-4.08-3-8.42-3.58-10.47a97.47,97.47,0,0,1-2.55-9.7c-1.2-6.11-.65-8-1.64-23.84-.22-3.49-.26-3.24-.29-4.61-.14-5.52.57-10.64,1.29-33.71,0-1.73.35-11.37.53-23,.3-19.9.17-39.51-6.2-59.31-1-3.23-2.08-6-4.66-8.33-9.26-8.43-27.35-1.71-34.65,1-11.38,4.23-22.92,8.52-26.32,19.66-3.26,10.68,3.13,20.53,3.67,21.32,3.37,5,7.91,7.36,17,12a102.85,102.85,0,0,0,17.64,7c.13,0,1.31.38,2.35.65,16.53,4.32,28.88-1.09,33.76,4.67,2.37,2.8,2.72,7.94.68,10.21-3.52,3.92-12.46-2.56-29.69-1.86-4.36.18-6.92.27-10.42,1.3-9.7,2.88-23.05,12.77-25.31,21.51-.09.38-.24,1-.67,1.15-2.43.74-8.63-15.74-24-50.31-5-11.23-8.42-23.2-14.32-34C391.37,128.18,389.61,125.93,390.53,122.9Z"/><path class="cls-3" d="M125.23,449.16c2.76-29.32,6.82-48.76,10.43-61.86,1.52-5.5,4.68-16.16,3-29.83-.7-5.62-1.55-6.34-5.65-20.46-4.34-14.92-7.34-25.27-8.88-37a132,132,0,0,1-.59-28.4,153.07,153.07,0,0,1,15.94-59.78c1.61-3.17,7.67-14.87,25.14-36a420.85,420.85,0,0,1,54.3-54.58,294.26,294.26,0,0,1,187.35,0c12.67,15.78,23,29.19,30.63,39.17,18.86,24.77,23,31.49,26.59,38.27a156.68,156.68,0,0,1,14.93,42.76,234.78,234.78,0,0,1,.64,65.08c-4.24,31.77-12.72,42.61-8.3,68.2,2.19,12.7,5.7,18.23,8.43,37.53a212.76,212.76,0,0,1,2,36.91Z"/><path class="cls-4" d="M416.46,222.56c-.1,7.18,13.89,7.84,23.57,11.1a111.64,111.64,0,0,0,31.28,5.72,80,80,0,0,0-29.42-25.47,76.44,76.44,0,0,0-24.68-7.41,136.21,136.21,0,0,0,22.25-2.32,135.18,135.18,0,0,0,15.89-4,68.65,68.65,0,0,0-24.59-8,67.78,67.78,0,0,0-24.56,1.46A80.83,80.83,0,0,0,423,188.51a78.52,78.52,0,0,0,7.51-3.7,29.38,29.38,0,0,0-11.22-6,28.51,28.51,0,0,0-8.2-1,95.1,95.1,0,0,0-21.2,4.83c-32.52,11.48-50.37,38-57.46,50.12l84.07-10.2"/><path class="cls-4" d="M316.15,421a70.24,70.24,0,0,1,58.41,17.42c21.17,18.92,27.08,44.76,28.55,52.21a482,482,0,0,1,25,69.2,506.48,506.48,0,0,1,14,69c3.73-5.37,29.21-43.38,21.29-94.46-5.67-36.57-25.14-58.35-31.57-65a150.54,150.54,0,0,1,31.62,43.13,177.42,177.42,0,0,1,15.45,47.26c4.28-14.62,8.91-38.62,1.79-63.78-2.08-7.35-4.66-12.79-7.29-18.6a175.45,175.45,0,0,0-33-49.18c-1.06-1.11,16.33,9.27,29.68,27.71a134.46,134.46,0,0,1,15.28,27.6c3.91-15.77,1.72-26.19.37-30.8a90.19,90.19,0,0,0-3.39-9.15,107.89,107.89,0,0,0-9-17.11,227.84,227.84,0,0,0-34.15-47.95,191.7,191.7,0,0,0-123-60.5V421l87,69.63"/><path class="cls-4" d="M316.15,421c-6-.91-37.72-5.11-66.35,17.42-24.05,18.92-30.76,44.76-32.43,52.21A445,445,0,0,0,189,559.86a452.9,452.9,0,0,0-15.92,69c-4.24-5.37-33.18-43.38-24.18-94.46a115.63,115.63,0,0,1,35.85-65,153.87,153.87,0,0,0-35.91,43.13,162.47,162.47,0,0,0-17.54,47.26c-4.87-14.62-10.13-38.62-2-63.78,2.36-7.35,5.29-12.79,8.29-18.6A176.25,176.25,0,0,1,175,428.3c1.21-1.11-18.54,9.27-33.71,27.71A130.32,130.32,0,0,0,124,483.61c-4.45-15.77-2-26.19-.42-30.8a84.68,84.68,0,0,1,3.84-9.15,106.15,106.15,0,0,1,10.27-17.11,231,231,0,0,1,38.79-47.95c52.17-49,112.79-58.27,139.69-60.5V421l-98.78,69.63"/><path class="cls-4" d="M316.15,421c-6-.91-37.72-5.11-66.35,17.42-24.05,18.92-30.76,44.76-32.43,52.21A445,445,0,0,0,189,559.86a452.9,452.9,0,0,0-15.92,69c-4.24-5.37-33.18-43.38-24.18-94.46a115.63,115.63,0,0,1,35.85-65,153.87,153.87,0,0,0-35.91,43.13,162.47,162.47,0,0,0-17.54,47.26c-4.87-14.62-10.13-38.62-2-63.78,2.36-7.35,5.29-12.79,8.29-18.6A176.25,176.25,0,0,1,175,428.3c1.21-1.11-18.54,9.27-33.71,27.71A130.32,130.32,0,0,0,124,483.61c-4.45-15.77,10.83-53.18,13.69-57.06a231,231,0,0,1,38.79-47.95c52.17-49,112.79-58.27,139.69-60.5V421l-98.78,69.63"/><path class="cls-5" d="M308,422.6h83.79c1.76,6.22,5.56,22.44.42,40.46a61.94,61.94,0,0,1-6.8,15.53l-5.76,24c-8.87-18.1-11.25-22.21-11.53-22s5,9.83,5.76,23.3a58.94,58.94,0,0,1-1,14.89,75.26,75.26,0,0,1-9.95,26.54,58.54,58.54,0,0,1-17.28,18.12c1.22-5.3,2.22-10.93,1-11.65s-4.13,3.16-14.66,22C317.22,600.26,312.91,611,310,610c-1.5-.54-3-4.44-2-21Z"/><path class="cls-5" d="M312.31,422.6H224.38c-1.85,6.22-5.84,22.44-.45,40.46a60.61,60.61,0,0,0,7.15,15.53q3,12,6,24c9.31-18.1,11.8-22.21,12.09-22,.45.29-5.21,9.83-6,23.3a55.9,55.9,0,0,0,1.1,14.89,73.06,73.06,0,0,0,10.44,26.54,59.75,59.75,0,0,0,18.14,18.12c-1.29-5.3-2.34-10.93-1.1-11.65s4.34,3.16,15.38,22C302.67,600.26,307.19,611,310.22,610c1.58-.54,3.13-4.44,2.09-21Z"/><ellipse cx="312.13" cy="454.03" rx="39.42" ry="42.43"/><path class="cls-6" d="M308,473.69l-32.47-37.95a38.1,38.1,0,0,0,1.29,9.25c4.11,15.52,16.69,27.69,20.82,31.47"/><path class="cls-6" d="M316.73,475l31.93-38.41a37.8,37.8,0,0,1-1,9.47c-3.6,15.86-16.07,28.14-20.17,31.95"/><ellipse class="cls-7" cx="312.69" cy="453.42" rx="29.19" ry="41.82"/><ellipse class="cls-8" cx="313.73" cy="441.6" rx="2.3" ry="35.09"/><path class="cls-4" d="M190.24,236.5a277.41,277.41,0,0,1-26.09,11.71,275.26,275.26,0,0,1-31,10,80.92,80.92,0,0,1,26.43-29.28,79.5,79.5,0,0,1,24.11-10.74,143.49,143.49,0,0,1-23,.76A142.42,142.42,0,0,1,144,217.16a71.4,71.4,0,0,1,49.13-13.24,84.53,84.53,0,0,1-17.77-2.78c-2.95-.79-5.67-1.69-8.16-2.63a30.49,30.49,0,0,1,10.6-7.48,30.81,30.81,0,0,1,8.21-2.14,61.17,61.17,0,0,1,22.24,1.87c11.54,3.3,36.38,17.46,65.39,41.74C227.48,224.84,203.6,229.92,190.24,236.5Z"/><path class="cls-9" d="M312.13,415.17a141.27,141.27,0,0,0-61.5,31.61c-9.66,8.6-31,46.34-38.39,61.73-8.05,16.79-12.56,24.52-18.67,36.83a493.62,493.62,0,0,0-22.82,53.95c-4.12-20.6-6.37-48.59,3.11-78.33,14.77-46.38,50.15-72.25,47.2-75.22-2.53-2.56-30.05,15.3-50.52,44.17a160.21,160.21,0,0,0-23.66,50.24c-2.68-23.66-1.55-52.86,14.1-78.91,19.36-32.2,53.23-46.81,52.3-48.18-.78-1.17-23.7,11.33-49.11,30.66-11.1,8.45-19.92,16.11-26.11,21.73a133.06,133.06,0,0,1,40.61-72.34q7.14-6.39,15.23-12.57c40.21-30.54,83.51-43.67,118.23-49.38v84q-77,55.57-82.39,49.32-3.6-4.15,24.7-35.87"/><path class="cls-9" d="M308.12,336.85a76.34,76.34,0,0,0,31.94-6.21,68.53,68.53,0,0,0,12.46-7.09l-33.74,2.59a42.38,42.38,0,0,0,20.89-7.9,36,36,0,0,0,7.4-7.44l-21,3.66c2.71-.45,9.36-1.91,14.4-7.2a20.62,20.62,0,0,0,3.52-5H326.05a45.49,45.49,0,0,0,14.79-6,41.57,41.57,0,0,0,7-5.57q-6.27.54-12.85,1.31-8.14,1-15.74,2.14a61.61,61.61,0,0,0,18.46-12.05,55.77,55.77,0,0,0,7.22-8.44l-7.61.64h0l-11.28-.64a43.82,43.82,0,0,1,6.61-4.32,47.43,47.43,0,0,1,9.38-3.77A37,37,0,0,0,328,264a35.89,35.89,0,0,0-7.75,1.54,15.54,15.54,0,0,0,1.33-4.22,16.25,16.25,0,0,0-1.76-10.07,39.11,39.11,0,0,0-3.11-8.86A43.13,43.13,0,0,0,306.17,229Z"/><path class="cls-9" d="M308,336.85a56.29,56.29,0,0,1-27.11-6.21,57.12,57.12,0,0,1-10.58-7.09L299,326.14a32.75,32.75,0,0,1-17.74-7.9A34,34,0,0,1,275,310.8l17.85,3.66a20.8,20.8,0,0,1-12.23-7.2,21.14,21.14,0,0,1-3-5h15.22a35.36,35.36,0,0,1-12.56-6,37.5,37.5,0,0,1-5.95-5.57q5.32.54,10.91,1.31,6.92,1,13.35,2.14a52.26,52.26,0,0,1-15.66-12.05,53.89,53.89,0,0,1-6.13-8.44l6.46.64h0l9.58-.64a37.81,37.81,0,0,0-5.62-4.32,37.21,37.21,0,0,0-7.95-3.77A26.85,26.85,0,0,1,291.16,264a26.37,26.37,0,0,1,6.58,1.54,18,18,0,0,1-1.12-4.22,18.82,18.82,0,0,1,1.48-10.07,44.91,44.91,0,0,1,2.65-8.86A42.5,42.5,0,0,1,309.68,229Q308.84,282.91,308,336.85Z"/><path class="cls-9" d="M312.13,415.17a122.84,122.84,0,0,1,55.38,31.61c8.71,8.6,27.92,46.34,34.57,61.73,7.26,16.79,11.32,24.52,16.82,36.83a523.89,523.89,0,0,1,20.56,53.95c3.71-20.6,5.73-48.59-2.8-78.33-13.31-46.38-45.17-72.25-42.52-75.22,2.28-2.56,27.07,15.3,45.5,44.17A169,169,0,0,1,461,540.15c2.42-23.66,1.4-52.86-12.7-78.91-17.43-32.2-47.93-46.81-47.1-48.18.71-1.17,21.35,11.33,44.23,30.66,10,8.45,17.95,16.11,23.51,21.73a142.63,142.63,0,0,0-13-39.25,131.63,131.63,0,0,0-23.58-33.09q-6.42-6.39-13.72-12.57c-36.21-30.54-75.21-43.67-106.47-49.38v84q69.56,63.3,75.29,56.83,4-4.54-23.34-43.38"/><path class="cls-10" d="M346.64,362.3a77.73,77.73,0,0,0-73.92,0,67.7,67.7,0,0,0,11.68,39.77,87,87,0,0,0,19.45,3.8c11.5.92,20.62,1.65,28.27-3.8,9.27-6.6,11-18.44,11.41-22.65"/><ellipse class="cls-11" cx="212.95" cy="267.27" rx="30.61" ry="50.84"/><ellipse class="cls-11" cx="401.85" cy="267.27" rx="30.61" ry="50.84"/><ellipse class="cls-12" cx="219.88" cy="270.98" rx="16.64" ry="36.15"/><ellipse class="cls-12" cx="407.15" cy="270.98" rx="16.64" ry="36.15"/><ellipse class="cls-11" cx="212.95" cy="247.89" rx="9.6" ry="13.06"/><ellipse class="cls-11" cx="401.85" cy="245.13" rx="9.6" ry="13.06"/><circle class="cls-11" cx="211.21" cy="276.14" r="5.16"/><circle class="cls-11" cx="399.48" cy="278.74" r="5.16"/></svg>